<svg width="123" height="38" viewBox="0 0 123 38" fill="none" xmlns="http://www.w3.org/2000/svg">
<g clip-path="url(#clip0_245_6)">
<path d="M23.2524 26.7402V33.7159C23.2524 34.3326 23.0074 34.9241 22.5713 35.3601C22.1353 35.7962 21.5438 36.0412 20.9271 36.0412H16.2767C15.66 36.0412 15.0685 35.7962 14.6325 35.3601C14.1964 34.9241 13.9514 34.3326 13.9514 33.7159V26.7402" stroke="#FCA311" stroke-width="2.75" stroke-linecap="round" stroke-linejoin="round"/>
<path d="M13.9514 31.3907H23.2524" stroke="#FCA311" stroke-width="2.75" stroke-linecap="round" stroke-linejoin="round"/>
<path d="M18.6019 1.16261V3.48785" stroke="#FCA311" stroke-width="2.75" stroke-linecap="round" stroke-linejoin="round"/>
<path d="M2.32525 17.4393H4.65049" stroke="#FCA311" stroke-width="2.75" stroke-linecap="round" stroke-linejoin="round"/>
<path d="M5.8131 5.81308L7.51828 7.45625" stroke="#FCA311" stroke-width="2.75" stroke-linecap="round" stroke-linejoin="round"/>
<path d="M34.8786 17.4393H32.5533" stroke="#FCA311" stroke-width="2.75" stroke-linecap="round" stroke-linejoin="round"/>
<path d="M31.3908 5.81308L29.6856 7.45625" stroke="#FCA311" stroke-width="2.75" stroke-linecap="round" stroke-linejoin="round"/>
<path d="M13.9514 16.6642C14.5681 16.6642 15.1596 16.9092 15.5956 17.3452C16.0317 17.7813 16.2767 18.3727 16.2767 18.9894V26.7402" stroke="#FCA311" stroke-width="2.75" stroke-linecap="round" stroke-linejoin="round"/>
<path d="M20.9271 26.7402V18.9894C20.9271 18.3727 21.1721 17.7813 21.6082 17.3452C22.0443 16.9092 22.6357 16.6642 23.2524 16.6642" stroke="#FCA311" stroke-width="2.75" stroke-linecap="round" stroke-linejoin="round"/>
<path d="M13.8274 26.7402H23.3764C25.1051 25.884 26.5565 24.5564 27.5631 22.9107C28.5697 21.265 29.0906 19.3683 29.0655 17.4393C29.0177 14.6791 27.8999 12.0453 25.9479 10.0933C23.9959 8.14127 21.3621 7.02351 18.6019 6.97571C15.8417 7.02351 13.208 8.14127 11.2559 10.0933C9.30392 12.0453 8.18616 14.6791 8.13835 17.4393C8.11329 19.3683 8.63411 21.265 9.64073 22.9107C10.6473 24.5564 12.0987 25.884 13.8274 26.7402Z" stroke="#FCA311" stroke-width="2.75" stroke-linecap="round" stroke-linejoin="round"/>
</g>
<path d="M98.9283 37.0355L108.085 10.1465H114.217L123 37.0355H117.863L115.998 31.2351H106.013L104.107 37.0355H98.9283ZM107.256 27.5477H114.838L111.068 15.9883L107.256 27.5477Z" fill="#FCA311"/>
<path d="M72.8414 37.2038V10.3148H90.1183V14.5408H77.7303V21.6256H89.3725V25.8516H77.7303V32.9364H90.1183V37.2038H72.8414Z" fill="#FCA311"/>
<path d="M41.9025 10.3148H50.6031C53.3376 10.3148 55.7337 10.8672 57.7915 11.972C59.8492 13.063 61.4513 14.6167 62.5975 16.6331C63.7438 18.6494 64.3169 21.0317 64.3169 23.78C64.3169 26.5007 63.7438 28.8692 62.5975 30.8855C61.4513 32.888 59.8492 34.4417 57.7915 35.5465C55.7337 36.6514 53.3376 37.2038 50.6031 37.2038H41.9025V10.3148ZM46.7914 14.7479V32.8121H50.6031C52.3432 32.8121 53.8417 32.4185 55.0984 31.6313C56.369 30.8441 57.3426 29.7738 58.0193 28.4203C58.7099 27.0531 59.0551 25.5063 59.0551 23.78C59.0551 22.0261 58.7099 20.4724 58.0193 19.119C57.3426 17.7655 56.369 16.7021 55.0984 15.9287C53.8417 15.1415 52.3432 14.7479 50.6031 14.7479H46.7914Z" fill="#FCA311"/>
<defs>
<clipPath id="clip0_245_6">
<rect width="37.2038" height="37.2038" fill="white"/>
</clipPath>
</defs>
</svg>
